<?xml version="1.0" standalone="no"?>
<!DOCTYPE svg PUBLIC "-//W3C//DTD SVG 20010904//EN"
 "http://www.w3.org/TR/2001/REC-SVG-20010904/DTD/svg10.dtd">
<svg version="1.0" xmlns="http://www.w3.org/2000/svg"
 width="296.000000pt" height="296.000000pt" viewBox="0 0 296.000000 296.000000"
 preserveAspectRatio="xMidYMid meet">
<metadata>
Created by potrace 1.11, written by Peter Selinger 2001-2013
</metadata>
<g transform="translate(0.000000,296.000000) scale(0.100000,-0.100000)"
fill="#000000" stroke="none">
<path d="M1739 2528 c-156 -160 -322 -330 -369 -378 -47 -48 -131 -134 -188
-192 l-103 -105 77 -79 c42 -43 223 -229 403 -412 179 -184 359 -368 400 -410
l74 -76 221 226 c692 706 706 721 706 751 0 19 -12 40 -37 66 -47 48 -646 660
-781 799 -55 56 -104 102 -109 102 -5 0 -137 -131 -294 -292z"/>
<path d="M40 2714 c0 -3 12 -26 26 -52 15 -26 40 -72 57 -102 17 -30 38 -67
49 -82 10 -14 18 -28 18 -31 0 -3 22 -43 48 -89 27 -46 65 -114 85 -151 21
-37 46 -82 56 -100 10 -18 48 -84 84 -147 36 -63 79 -140 96 -170 18 -30 41
-74 53 -98 12 -23 26 -41 31 -39 5 1 23 29 41 62 50 92 82 149 162 288 41 71
74 130 74 131 0 2 23 43 52 92 28 49 60 105 70 124 10 19 22 42 28 50 5 8 46
80 91 160 45 80 83 148 86 153 2 4 -268 7 -601 7 -333 0 -606 -3 -606 -6z"/>
<path d="M314 1401 c-2 -2 -4 -319 -4 -703 l0 -698 325 0 325 0 0 28 c1 42 1
1323 0 1352 l0 25 -321 0 c-176 0 -322 -2 -325 -4z"/>
</g>
</svg>
